<?xml version="1.0" encoding="utf-8"?>
<!-- Generator: Adobe Illustrator 23.0.2, SVG Export Plug-In . SVG Version: 6.00 Build 0)  -->
<svg version="1.1" id="Layer_1" xmlns="http://www.w3.org/2000/svg" xmlns:xlink="http://www.w3.org/1999/xlink" x="0px" y="0px"
	 viewBox="0 0 250 100" style="enable-background:new 0 0 250 100;" xml:space="preserve">
<g>
	<path d="M42.1,51.1l-9.8-13.5l-3.7,3.8v9.7h-7V19.5h7v13.8l12.8-13.8h8.4L37,32.9l13.5,18.2H42.1z"/>
	<path d="M86.6,51.1L71.3,31v20.1h-6.9V19.5h6.4L85.6,39V19.5h6.9v31.6H86.6z"/>
	<path d="M120.3,50.2c-2.2,1-4.8,1.5-7.7,1.5c-2.5,0-4.7-0.4-6.8-1.2c-2-0.8-3.8-1.9-5.2-3.4c-1.5-1.4-2.6-3.2-3.4-5.1
		c-0.8-2-1.2-4.2-1.2-6.5v-0.1c0-2.3,0.4-4.4,1.2-6.3c0.8-2,2-3.7,3.5-5.2c1.5-1.5,3.2-2.7,5.2-3.5c2-0.9,4.2-1.3,6.6-1.3
		c1.4,0,2.7,0.1,3.9,0.3c1.2,0.2,2.2,0.5,3.2,0.8c1,0.4,1.9,0.8,2.8,1.4c0.9,0.5,1.7,1.2,2.5,1.9l-4.4,5.3c-0.6-0.5-1.2-1-1.8-1.4
		c-0.6-0.4-1.2-0.7-1.9-1c-0.6-0.3-1.3-0.5-2.1-0.6c-0.8-0.2-1.6-0.2-2.5-0.2c-1.3,0-2.4,0.3-3.5,0.8c-1.1,0.5-2.1,1.2-2.9,2.1
		c-0.8,0.9-1.5,1.9-1.9,3.1c-0.5,1.2-0.7,2.5-0.7,3.8v0.1c0,1.4,0.2,2.8,0.7,4c0.5,1.2,1.1,2.3,2,3.2c0.9,0.9,1.9,1.6,3,2.1
		c1.2,0.5,2.4,0.7,3.9,0.7c2.6,0,4.8-0.6,6.5-1.9v-4.5h-7v-6h13.7v13.7C124.5,48.1,122.5,49.2,120.3,50.2z"/>
	<path d="M158,41.6c-0.8,1.9-2,3.6-3.5,5c-1.5,1.4-3.3,2.5-5.3,3.3c-2.1,0.8-4.3,1.2-6.8,1.2h-12.3V19.5h12.3c2.5,0,4.7,0.4,6.8,1.2
		c2.1,0.8,3.8,1.9,5.3,3.3c1.5,1.4,2.6,3.1,3.5,5c0.8,1.9,1.2,4,1.2,6.2v0.1C159.2,37.6,158.8,39.6,158,41.6z M151.9,35.3
		c0-1.4-0.2-2.7-0.7-3.8c-0.5-1.2-1.1-2.2-1.9-3c-0.8-0.8-1.8-1.5-3-2c-1.2-0.5-2.5-0.7-3.9-0.7H137v19.1h5.4c1.4,0,2.7-0.2,3.9-0.7
		c1.2-0.5,2.2-1.1,3-1.9c0.8-0.8,1.5-1.8,1.9-3C151.7,38.1,151.9,36.8,151.9,35.3L151.9,35.3z"/>
	<path d="M193.6,41.7c-0.8,2-2,3.7-3.5,5.2s-3.3,2.7-5.3,3.5c-2.1,0.9-4.3,1.3-6.8,1.3c-2.4,0-4.7-0.4-6.7-1.3c-2-0.9-3.8-2-5.3-3.5
		c-1.5-1.5-2.7-3.2-3.5-5.1c-0.8-2-1.2-4.1-1.2-6.3v-0.1c0-2.3,0.4-4.4,1.3-6.3c0.8-2,2-3.7,3.5-5.2s3.3-2.7,5.3-3.5
		c2.1-0.9,4.3-1.3,6.8-1.3c2.4,0,4.7,0.4,6.7,1.3c2,0.9,3.8,2,5.3,3.5c1.5,1.5,2.6,3.2,3.5,5.1c0.8,2,1.2,4.1,1.2,6.3v0.1
		C194.9,37.6,194.5,39.7,193.6,41.7z M187.6,35.3c0-1.4-0.2-2.6-0.7-3.8c-0.5-1.2-1.1-2.3-2-3.2c-0.9-0.9-1.9-1.6-3-2.1
		c-1.2-0.5-2.5-0.8-3.8-0.8c-1.4,0-2.7,0.3-3.9,0.8c-1.2,0.5-2.2,1.2-3,2.1c-0.8,0.9-1.5,1.9-1.9,3.1c-0.5,1.2-0.7,2.5-0.7,3.8v0.1
		c0,1.4,0.2,2.6,0.7,3.8c0.5,1.2,1.1,2.3,2,3.2c0.9,0.9,1.9,1.6,3,2.1c1.2,0.5,2.4,0.8,3.9,0.8c1.4,0,2.7-0.3,3.8-0.8
		c1.2-0.5,2.2-1.2,3-2.1c0.8-0.9,1.5-1.9,1.9-3.1C187.4,38,187.6,36.8,187.6,35.3L187.6,35.3z"/>
	<path d="M223.1,51.1V30.5L214.2,44h-0.2l-8.8-13.4v20.5h-6.9V19.5h7.5l8.3,13.4l8.3-13.4h7.5v31.6H223.1z"/>
	<g>
		<path d="M39.9,80.7h-2.4l-2.3-5.2H24.6l-2.3,5.2H20l8.9-19.8H31L39.9,80.7z M29.9,63.5l-4.5,10h8.9L29.9,63.5z"/>
		<path d="M51.5,75.3h-0.1l-7.1-10.5v15.9h-2.2V61.1h2.2l7.1,10.7l7.1-10.7h2.2v19.6h-2.2V64.8L51.5,75.3z"/>
		<path d="M75.7,61.4c0.8,0.2,1.5,0.6,2,1s1,0.9,1.3,1.5c0.3,0.6,0.4,1.3,0.4,2c0,0.7-0.1,1.2-0.3,1.7c-0.2,0.5-0.4,0.9-0.7,1.3
			c-0.3,0.4-0.6,0.7-1,0.9c-0.4,0.3-0.7,0.5-1.1,0.6c0.6,0.2,1.1,0.4,1.6,0.7c0.5,0.3,1,0.6,1.3,1c0.4,0.4,0.7,0.8,0.9,1.3
			c0.2,0.5,0.3,1.1,0.3,1.8c0,0.8-0.2,1.6-0.5,2.3c-0.3,0.7-0.8,1.2-1.4,1.7c-0.6,0.5-1.4,0.8-2.3,1.1c-0.9,0.2-1.8,0.4-2.9,0.4
			h-8.7V61.1h8.3C74.1,61.1,75,61.2,75.7,61.4z M76,68.9c0.8-0.6,1.3-1.5,1.3-2.6c0-1-0.4-1.8-1.1-2.4c-0.7-0.6-1.8-0.9-3.2-0.9h-6
			v6.8h5.8C74.1,69.8,75.2,69.5,76,68.9z M77.1,77.8c0.9-0.6,1.3-1.5,1.3-2.6c0-1.1-0.4-1.9-1.3-2.5c-0.9-0.6-2.2-0.9-3.9-0.9H67
			v6.9h6.6C75,78.7,76.2,78.4,77.1,77.8z"/>
		<path d="M101.6,80.7h-2.4l-2.3-5.2H86.2l-2.3,5.2h-2.3l8.9-19.8h2.1L101.6,80.7z M91.6,63.5l-4.5,10H96L91.6,63.5z"/>
		<path d="M105.3,67.2c0.1,0.4,0.4,0.7,0.8,1c0.4,0.3,0.9,0.6,1.6,0.8c0.7,0.3,1.6,0.5,2.7,0.7c2.2,0.5,3.8,1.2,4.8,2
			c1,0.9,1.6,2,1.6,3.6c0,0.8-0.2,1.6-0.5,2.3c-0.3,0.7-0.8,1.3-1.4,1.8c-0.6,0.5-1.3,0.9-2.1,1.1c-0.8,0.3-1.7,0.4-2.7,0.4
			c-1.6,0-3-0.3-4.3-0.8c-1.3-0.5-2.5-1.3-3.7-2.4l1.4-1.6c1,0.9,2.1,1.6,3.1,2.1c1,0.5,2.3,0.7,3.6,0.7c1.3,0,2.4-0.3,3.2-0.9
			c0.8-0.6,1.2-1.4,1.2-2.4c0-0.5-0.1-0.9-0.2-1.2c-0.1-0.4-0.4-0.7-0.8-1c-0.4-0.3-0.9-0.6-1.6-0.8c-0.7-0.2-1.5-0.5-2.5-0.7
			c-1.1-0.2-2.1-0.5-2.9-0.8c-0.8-0.3-1.5-0.7-2.1-1.2c-0.5-0.4-0.9-1-1.2-1.6c-0.3-0.6-0.4-1.3-0.4-2.1c0-0.8,0.2-1.5,0.5-2.2
			c0.3-0.7,0.8-1.2,1.3-1.7c0.6-0.5,1.3-0.9,2-1.1c0.8-0.3,1.6-0.4,2.6-0.4c1.4,0,2.7,0.2,3.8,0.6c1.1,0.4,2.1,1,3.1,1.8l-1.3,1.7
			c-0.9-0.7-1.8-1.3-2.8-1.6c-0.9-0.3-1.9-0.5-2.9-0.5c-0.6,0-1.2,0.1-1.7,0.3c-0.5,0.2-1,0.4-1.3,0.7c-0.4,0.3-0.6,0.6-0.8,1
			c-0.2,0.4-0.3,0.8-0.3,1.3C105.1,66.4,105.2,66.8,105.3,67.2z"/>
		<path d="M121.3,67.2c0.1,0.4,0.4,0.7,0.8,1c0.4,0.3,0.9,0.6,1.6,0.8c0.7,0.3,1.6,0.5,2.7,0.7c2.2,0.5,3.8,1.2,4.8,2
			c1,0.9,1.6,2,1.6,3.6c0,0.8-0.2,1.6-0.5,2.3c-0.3,0.7-0.8,1.3-1.4,1.8s-1.3,0.9-2.1,1.1c-0.8,0.3-1.7,0.4-2.7,0.4
			c-1.6,0-3-0.3-4.3-0.8c-1.3-0.5-2.5-1.3-3.7-2.4l1.4-1.6c1,0.9,2.1,1.6,3.1,2.1c1,0.5,2.3,0.7,3.6,0.7c1.3,0,2.4-0.3,3.2-0.9
			c0.8-0.6,1.2-1.4,1.2-2.4c0-0.5-0.1-0.9-0.2-1.2c-0.1-0.4-0.4-0.7-0.8-1c-0.4-0.3-0.9-0.6-1.6-0.8c-0.7-0.2-1.5-0.5-2.5-0.7
			c-1.1-0.2-2.1-0.5-2.9-0.8c-0.8-0.3-1.5-0.7-2.1-1.2c-0.5-0.4-0.9-1-1.2-1.6c-0.3-0.6-0.4-1.3-0.4-2.1c0-0.8,0.2-1.5,0.5-2.2
			c0.3-0.7,0.8-1.2,1.3-1.7c0.6-0.5,1.3-0.9,2-1.1c0.8-0.3,1.6-0.4,2.6-0.4c1.4,0,2.7,0.2,3.8,0.6c1.1,0.4,2.1,1,3.1,1.8l-1.3,1.7
			c-0.9-0.7-1.8-1.3-2.8-1.6c-0.9-0.3-1.9-0.5-2.9-0.5c-0.6,0-1.2,0.1-1.7,0.3c-0.5,0.2-1,0.4-1.3,0.7c-0.4,0.3-0.6,0.6-0.8,1
			c-0.2,0.4-0.3,0.8-0.3,1.3C121.1,66.4,121.1,66.8,121.3,67.2z"/>
		<path d="M153.5,80.7h-2.4l-2.3-5.2h-10.7l-2.3,5.2h-2.3l8.9-19.8h2.1L153.5,80.7z M143.5,63.5l-4.5,10h8.9L143.5,63.5z"/>
		<path d="M172.1,74.7c-0.5,1.2-1.2,2.2-2.1,3.1c-0.9,0.9-2,1.6-3.3,2.1c-1.3,0.5-2.7,0.8-4.2,0.8h-6.8V61.1h6.8
			c1.5,0,2.9,0.2,4.2,0.7c1.3,0.5,2.4,1.2,3.3,2.1c0.9,0.9,1.6,1.9,2.1,3.1c0.5,1.2,0.8,2.5,0.8,3.9S172.6,73.5,172.1,74.7z
			 M170,67.9c-0.4-1-0.9-1.8-1.6-2.5c-0.7-0.7-1.6-1.3-2.6-1.7c-1-0.4-2.1-0.6-3.4-0.6h-4.6v15.5h4.6c1.2,0,2.4-0.2,3.4-0.6
			c1-0.4,1.9-0.9,2.6-1.6c0.7-0.7,1.2-1.5,1.6-2.5c0.4-0.9,0.6-2,0.6-3.1C170.6,69.8,170.4,68.8,170,67.9z"/>
		<path d="M194.3,74.7c-0.5,1.2-1.2,2.3-2,3.2c-0.9,0.9-1.9,1.7-3.2,2.2c-1.2,0.6-2.6,0.8-4.1,0.8c-1.5,0-2.9-0.3-4.1-0.8
			c-1.2-0.5-2.3-1.3-3.2-2.2c-0.9-0.9-1.6-2-2-3.2c-0.5-1.2-0.7-2.5-0.7-3.9c0-1.4,0.2-2.7,0.7-3.9c0.5-1.2,1.2-2.3,2-3.2
			c0.9-0.9,1.9-1.7,3.2-2.2c1.2-0.6,2.6-0.8,4.1-0.8c1.5,0,2.9,0.3,4.1,0.8c1.2,0.5,2.3,1.3,3.2,2.2c0.9,0.9,1.6,2,2,3.2
			c0.5,1.2,0.7,2.5,0.7,3.9S194.8,73.5,194.3,74.7z M192.1,67.7c-0.4-1-0.9-1.8-1.6-2.6c-0.7-0.7-1.5-1.3-2.5-1.7
			c-0.9-0.4-2-0.6-3.1-0.6s-2.2,0.2-3.1,0.6c-0.9,0.4-1.8,1-2.4,1.7c-0.7,0.7-1.2,1.6-1.6,2.6c-0.4,1-0.6,2-0.6,3.2
			c0,1.1,0.2,2.2,0.6,3.2c0.4,1,0.9,1.8,1.6,2.6c0.7,0.7,1.5,1.3,2.5,1.7c0.9,0.4,2,0.6,3.1,0.6c1.1,0,2.2-0.2,3.1-0.6
			c0.9-0.4,1.8-1,2.4-1.7c0.7-0.7,1.2-1.6,1.6-2.6c0.4-1,0.6-2,0.6-3.2C192.7,69.8,192.5,68.7,192.1,67.7z"/>
		<path d="M211.5,80.7l-5.7-7.6h-5.6v7.6H198V61.1h8.4c1.1,0,2.1,0.1,2.9,0.4c0.9,0.3,1.6,0.7,2.2,1.2c0.6,0.5,1.1,1.1,1.4,1.9
			c0.3,0.7,0.5,1.5,0.5,2.4c0,0.8-0.1,1.6-0.4,2.2c-0.3,0.6-0.6,1.2-1.1,1.7c-0.5,0.5-1,0.9-1.7,1.2c-0.7,0.3-1.4,0.5-2.1,0.7l6,8
			H211.5z M210,64.1c-0.9-0.7-2.1-1-3.7-1h-6.1v8h6c0.7,0,1.4-0.1,2-0.3c0.6-0.2,1.2-0.5,1.6-0.8c0.4-0.3,0.8-0.8,1.1-1.3
			c0.3-0.5,0.4-1.1,0.4-1.7C211.3,65.8,210.9,64.8,210,64.1z"/>
		<path d="M218.5,67.2c0.1,0.4,0.4,0.7,0.8,1c0.4,0.3,0.9,0.6,1.6,0.8c0.7,0.3,1.6,0.5,2.7,0.7c2.2,0.5,3.8,1.2,4.8,2
			c1,0.9,1.6,2,1.6,3.6c0,0.8-0.2,1.6-0.5,2.3c-0.3,0.7-0.8,1.3-1.4,1.8s-1.3,0.9-2.1,1.1c-0.8,0.3-1.7,0.4-2.7,0.4
			c-1.6,0-3-0.3-4.3-0.8c-1.3-0.5-2.5-1.3-3.7-2.4l1.4-1.6c1,0.9,2.1,1.6,3.1,2.1c1,0.5,2.3,0.7,3.6,0.7c1.3,0,2.4-0.3,3.2-0.9
			c0.8-0.6,1.2-1.4,1.2-2.4c0-0.5-0.1-0.9-0.2-1.2c-0.1-0.4-0.4-0.7-0.8-1c-0.4-0.3-0.9-0.6-1.6-0.8c-0.7-0.2-1.5-0.5-2.5-0.7
			c-1.1-0.2-2.1-0.5-2.9-0.8c-0.8-0.3-1.5-0.7-2.1-1.2c-0.5-0.4-0.9-1-1.2-1.6c-0.3-0.6-0.4-1.3-0.4-2.1c0-0.8,0.2-1.5,0.5-2.2
			c0.3-0.7,0.8-1.2,1.3-1.7c0.6-0.5,1.3-0.9,2-1.1c0.8-0.3,1.6-0.4,2.6-0.4c1.4,0,2.7,0.2,3.8,0.6c1.1,0.4,2.1,1,3.1,1.8l-1.3,1.7
			c-0.9-0.7-1.8-1.3-2.8-1.6c-0.9-0.3-1.9-0.5-2.9-0.5c-0.6,0-1.2,0.1-1.7,0.3c-0.5,0.2-1,0.4-1.3,0.7s-0.6,0.6-0.8,1
			c-0.2,0.4-0.3,0.8-0.3,1.3C218.3,66.4,218.4,66.8,218.5,67.2z"/>
	</g>
	<g>
		<polygon points="53.3,19.6 48.4,38 55.8,36.8 51.4,51.2 62.7,32.5 57.2,32.5 63.5,19.8 		"/>
	</g>
</g>
</svg>
